<svg xmlns="http://www.w3.org/2000/svg" width="45.533" height="50.681" viewBox="0 0 45.533 50.681"><defs><style>.a{fill:#d6b981;}</style></defs><g transform="translate(-26)"><g transform="translate(52.726 8.216)"><path class="a" d="M296.99,83a.99.99,0,1,0,.99.99A.99.99,0,0,0,296.99,83Z" transform="translate(-296 -83)"/></g><g transform="translate(42.828 8.216)"><g transform="translate(0)"><path class="a" d="M196.99,83a.99.99,0,1,0,.99.99A.99.99,0,0,0,196.99,83Z" transform="translate(-196 -83)"/></g></g><g transform="translate(26)"><g transform="translate(0)"><path class="a" d="M70.259,29.585a7.916,7.916,0,0,0,1.275-4.245,6.875,6.875,0,0,0-2.507-5.319,6.692,6.692,0,0,0,.528-2.6,7.378,7.378,0,0,0-4-6.525,5.933,5.933,0,0,0-4.506-6.474A7.131,7.131,0,0,0,54.706,0a6.956,6.956,0,0,0-5.939,3.565A6.957,6.957,0,0,0,42.828,0a7.131,7.131,0,0,0-6.341,4.422A5.932,5.932,0,0,0,31.981,10.9a7.378,7.378,0,0,0-4,6.525,6.692,6.692,0,0,0,.528,2.6A6.875,6.875,0,0,0,26,25.34a7.915,7.915,0,0,0,1.275,4.245,6.834,6.834,0,0,0,.794,8.873,7.185,7.185,0,0,0,6.84,8.264H35a7.8,7.8,0,0,0,13.767-.344,7.8,7.8,0,0,0,13.767.344h.09A7.177,7.177,0,0,0,69.554,39.5a6.336,6.336,0,0,0-.089-1.038,6.833,6.833,0,0,0,.794-8.873Zm-22.482-14.6a3.934,3.934,0,0,0-1.98-.533.99.99,0,0,0,0,1.98,1.982,1.982,0,0,1,1.98,1.98V37.235a7.9,7.9,0,0,0-5.939-2.689.99.99,0,0,0,0,1.98,5.946,5.946,0,0,1,5.939,5.939A6.175,6.175,0,0,1,41.838,48.7a5.956,5.956,0,0,1-5.375-3.453.99.99,0,0,0-1.01-.567l-.209.027c-2.817.385-5.99-2.8-5.131-6.373a.99.99,0,0,0-.329-.992,4.928,4.928,0,0,1-1.8-3.786,4.871,4.871,0,0,1,.726-2.547,6.679,6.679,0,0,0,4.223,1.557.99.99,0,0,0,0-1.98A5.2,5.2,0,0,1,27.98,25.34a4.922,4.922,0,0,1,2.312-4.171.99.99,0,0,0,.331-1.324,4.871,4.871,0,0,1-.663-2.423,5.226,5.226,0,0,1,4.949-5.246,5.238,5.238,0,0,1,4.949,5.246.99.99,0,1,0,1.98,0A7.177,7.177,0,0,0,34.909,10.2a6.419,6.419,0,0,0-.987.078c0-.026,0-.051,0-.078a3.96,3.96,0,0,1,6.76-2.8.99.99,0,0,0,1.4-1.4,5.9,5.9,0,0,0-3.283-1.668A5,5,0,0,1,42.828,1.98a5.238,5.238,0,0,1,4.949,5.246ZM64.6,32.566a6.681,6.681,0,0,0,4.223-1.557,4.871,4.871,0,0,1,.726,2.547,4.928,4.928,0,0,1-1.8,3.786.99.99,0,0,0-.329.992,4.884,4.884,0,0,1,.154,1.16c0,3.073-2.779,5.556-5.285,5.213-.07-.009-.139-.019-.209-.027a.989.989,0,0,0-1.01.567A5.956,5.956,0,0,1,55.7,48.7a6.175,6.175,0,0,1-5.939-6.236A5.946,5.946,0,0,1,55.7,36.526a.99.99,0,1,0,0-1.98,7.9,7.9,0,0,0-5.939,2.689V18.411a1.982,1.982,0,0,1,1.98-1.98.99.99,0,1,0,0-1.98,3.934,3.934,0,0,0-1.98.533V7.226A5.238,5.238,0,0,1,54.706,1.98a5,5,0,0,1,4.033,2.347A5.9,5.9,0,0,0,55.455,6a.99.99,0,1,0,1.4,1.4,3.96,3.96,0,0,1,6.76,2.8c0,.026,0,.052,0,.078a6.419,6.419,0,0,0-.987-.078A7.177,7.177,0,0,0,55.7,17.421a.99.99,0,1,0,1.98,0,4.958,4.958,0,1,1,9.9,0,4.871,4.871,0,0,1-.663,2.423.99.99,0,0,0,.331,1.324,4.922,4.922,0,0,1,2.311,4.171A5.2,5.2,0,0,1,64.6,30.587a.99.99,0,1,0,0,1.98Z" transform="translate(-26)"/></g></g><g transform="translate(33.919 16.432)"><g transform="translate(0)"><path class="a" d="M117.626,170.757a.99.99,0,0,0-1.4-.078,4.958,4.958,0,0,1-8.249-3.689.99.99,0,0,0-1.98,0,6.939,6.939,0,0,0,5.8,6.836,2.975,2.975,0,0,1-2.831,2.073.99.99,0,1,0,0,1.98,4.957,4.957,0,0,0,4.86-4.019,6.918,6.918,0,0,0,3.718-1.705A.99.99,0,0,0,117.626,170.757Z" transform="translate(-106 -166)"/></g></g><g transform="translate(33.919 38.505)"><g transform="translate(0)"><path class="a" d="M106.99,389a.99.99,0,0,0,0,1.98,5.238,5.238,0,0,1,4.949,5.246.99.99,0,1,0,1.98,0A7.177,7.177,0,0,0,106.99,389Z" transform="translate(-106 -389)"/></g></g><g transform="translate(34.948 30.587)"><g transform="translate(0)"><path class="a" d="M124.278,309a8.89,8.89,0,0,0-7.751,4.515.99.99,0,1,0,1.722.976,6.914,6.914,0,0,1,6.028-3.511.99.99,0,1,0,0-1.98Z" transform="translate(-116.398 -309)"/></g></g><g transform="translate(51.736 16.432)"><path class="a" d="M294.909,175.9a2.975,2.975,0,0,1-2.831-2.073,6.939,6.939,0,0,0,5.8-6.836.99.99,0,0,0-1.98,0,4.949,4.949,0,0,1-8.249,3.689.99.99,0,1,0-1.32,1.475,6.918,6.918,0,0,0,3.718,1.705,4.957,4.957,0,0,0,4.86,4.019.99.99,0,1,0,0-1.98Z" transform="translate(-286 -166)"/></g><g transform="translate(55.696 38.505)"><path class="a" d="M332.929,389A7.177,7.177,0,0,0,326,396.226a.99.99,0,0,0,1.98,0,5.238,5.238,0,0,1,4.949-5.246.99.99,0,0,0,0-1.98Z" transform="translate(-326 -389)"/></g><g transform="translate(53.716 30.587)"><path class="a" d="M314.74,313.515A8.889,8.889,0,0,0,306.99,309a.99.99,0,1,0,0,1.98,6.915,6.915,0,0,1,6.028,3.511.99.99,0,0,0,1.722-.976Z" transform="translate(-306 -309)"/></g></g></svg>