<svg xmlns="http://www.w3.org/2000/svg" width="34.935" height="51.781" viewBox="0 0 34.935 51.781"><defs><style>.a{fill:#fff;stroke:#fff;stroke-width:0.1px;}</style></defs><g transform="translate(-83.397 0.05)"><g transform="translate(83.447)"><path class="a" d="M117.525,41.874a.757.757,0,0,0-.757.757v7.118a.419.419,0,0,1-.418.418h-4.07V35.258a.757.757,0,1,0-1.514,0V50.166h-8.195l2.376-2.614a1.357,1.357,0,0,0,.327-1.089c0-.008,0-.015,0-.023l-2.263-13.371.61-.918a1.717,1.717,0,0,0,1.084.47,1.326,1.326,0,0,0,1.187-.734h0l2.387-4.784,5.438,2.106a5.246,5.246,0,0,1,3.054,4.768V39.1a.757.757,0,0,0,1.514,0V33.977a6.756,6.756,0,0,0-4-6.17l-.014-.006L105.22,24.3V22.173a7.093,7.093,0,0,0,2.685-4.666,3.277,3.277,0,0,0,1.925-.785,3.214,3.214,0,0,0,.335-4.535v-2.8a9.382,9.382,0,1,0-18.765,0V12.26a3.04,3.04,0,0,0-.781,2.026,3.208,3.208,0,0,0,1.116,2.436,3.275,3.275,0,0,0,1.924.785A7.018,7.018,0,0,0,96.5,22.285V24.3L87.457,27.8l-.014.006a6.756,6.756,0,0,0-4,6.17V49.748a1.934,1.934,0,0,0,1.932,1.932h7.213a.757.757,0,0,0,0-1.514H90.963V35.258a.757.757,0,0,0-1.514,0V50.166h-4.07a.419.419,0,0,1-.418-.418V33.977a5.246,5.246,0,0,1,3.053-4.768L93.448,27.1l2.387,4.785a1.326,1.326,0,0,0,1.187.734,1.716,1.716,0,0,0,1.084-.47l.61.918L96.452,46.44l0,.023a1.357,1.357,0,0,0,.327,1.089l2.376,2.614H96.125a.757.757,0,1,0,0,1.514H116.35a1.934,1.934,0,0,0,1.932-1.932V42.631A.757.757,0,0,0,117.525,41.874Zm-10.667-15.32-2.226,4.46-2.677-1.9L104.7,25.72Zm-4.475,4.72-.577.869H99.918l-.577-.869,1.521-1.08ZM98.012,24.54V23.124a7.681,7.681,0,0,0,2.863.543,7.107,7.107,0,0,0,2.832-.59v1.47l-2.845,3.511Zm11.42-10.254a1.7,1.7,0,0,1-.589,1.287,1.763,1.763,0,0,1-.874.4V12.6A1.713,1.713,0,0,1,109.432,14.287ZM93.6,15.976a1.711,1.711,0,0,1-1.464-1.69A1.8,1.8,0,0,1,93.6,12.635Zm.041-4.884a3.743,3.743,0,0,0-.724.163V9.383a7.868,7.868,0,1,1,15.737,0V11.2a3.366,3.366,0,0,0-.683-.132c0-.73.006-.59-2.383-3.159a1.347,1.347,0,0,0-1.72-.21,14.6,14.6,0,0,1-8.824,2.375A1.346,1.346,0,0,0,93.638,11.093Zm1.473,5.48V11.6a16.178,16.178,0,0,0,9.462-2.552c1.1,1.177,1.69,1.794,1.881,2.029v5.5a5.672,5.672,0,0,1-11.343,0Zm1.98,14.442-2.226-4.46,2.149-.832,2.75,3.394ZM97.96,46.6l2.191-12.947h1.42L103.763,46.6l-2.9,3.192Z" transform="translate(-83.447)"/></g></g></svg>