<svg width="167.657" height="167.657" xmlns="http://www.w3.org/2000/svg">

 <g>
  <title>Layer 1</title>
  <g id="svg_1">
   <path id="svg_2" fill="#007fff" d="m83.829,0.349c-46.297,0 -83.829,37.532 -83.829,83.829c0,41.523 30.222,75.911 69.848,82.57l0,-65.081l-20.222,0l0,-23.42l20.222,0l0,-17.269c0,-20.037 12.238,-30.956 30.115,-30.956c8.562,0 15.92,0.638 18.056,0.919l0,20.944l-12.399,0.006c-9.72,0 -11.594,4.618 -11.594,11.397l0,14.947l23.193,0l-3.025,23.42l-20.168,0l0,65.653c41.476,-5.048 73.631,-40.312 73.631,-83.154c0,-46.273 -37.532,-83.805 -83.828,-83.805z"/>
  </g>
  <g id="svg_3"/>
  <g id="svg_4"/>
  <g id="svg_5"/>
  <g id="svg_6"/>
  <g id="svg_7"/>
  <g id="svg_8"/>
  <g id="svg_9"/>
  <g id="svg_10"/>
  <g id="svg_11"/>
  <g id="svg_12"/>
  <g id="svg_13"/>
  <g id="svg_14"/>
  <g id="svg_15"/>
  <g id="svg_16"/>
  <g id="svg_17"/>
 </g>
</svg>