<svg xmlns="http://www.w3.org/2000/svg" width="51.854" height="51.78" viewBox="0 0 51.854 51.78"><defs><style>.a{fill:#d6b981;stroke:#d6b981;stroke-width:0.1px;}</style></defs><g transform="translate(0.12 0.033)"><path class="a" d="M45.895,6.046h-1.1V4.324A4.312,4.312,0,0,0,40.486.017H11.2A4.312,4.312,0,0,0,6.894,4.324V6.046h-1.1a5.789,5.789,0,0,0-4.2,9.77l5.3,5.6v9.61H8.616V23.234l6.938,7.324,1.489,10.419a4.317,4.317,0,0,1-.265,2.209l-.521,1.3,1.6.639.521-1.3a6.034,6.034,0,0,0,.37-3.092L17.221,30.042a.863.863,0,0,0-.227-.47L2.84,14.632A4.066,4.066,0,0,1,5.792,7.769h7.356A4.708,4.708,0,0,0,18.41,9.2a6.967,6.967,0,0,0,.426,1.07l.471.941H7.755a.861.861,0,0,0-.572,1.5l7.752,6.891a.86.86,0,0,0,.572.218h4.832a2.08,2.08,0,0,0,2.067-2.055L22.42,14.5a6.642,6.642,0,0,0,4.139-2.808.861.861,0,0,0-.108-1.087l-.834-.834a1.174,1.174,0,0,1,.83-2h1.117a.861.861,0,0,0,.861-.861V2.1a5.417,5.417,0,0,1,3.153,3.18l.559,1.9a.866.866,0,0,0,.13.286l1.8,2.558-.829.415a.861.861,0,0,0-.476.77V13.8a.862.862,0,0,1-.861.861h-2.61a.861.861,0,0,0-.861.861v2.239a2.07,2.07,0,0,0,2.067,2.067h5.685a.86.86,0,0,0,.572-.218L44.5,12.719a.861.861,0,0,0-.572-1.5H35.547l.182-.091a.862.862,0,0,0,.32-1.265L34.583,7.769H45.894a4.066,4.066,0,0,1,2.952,6.863L34.692,29.572a.859.859,0,0,0-.227.47L32.938,40.733a6.034,6.034,0,0,0,.37,3.092l2.46,6.149H14.218a5.821,5.821,0,0,0,.716-.809,3.018,3.018,0,0,0,0-3.55,5.988,5.988,0,0,0-2.4-1.951,4.6,4.6,0,0,0,.783-.845,2.473,2.473,0,0,0,0-2.913,4.677,4.677,0,0,0-1.63-1.41,4.583,4.583,0,0,0,.776-.849,2.5,2.5,0,0,0,0-2.9,4.781,4.781,0,0,0-3.919-1.994H6.969A4.779,4.779,0,0,0,3.05,34.742a2.5,2.5,0,0,0,0,2.9,4.592,4.592,0,0,0,.777.849A4.68,4.68,0,0,0,2.2,39.9a2.473,2.473,0,0,0,0,2.913,4.6,4.6,0,0,0,.784.846,5.99,5.99,0,0,0-2.4,1.952,3.018,3.018,0,0,0,0,3.55A6.194,6.194,0,0,0,5.628,51.7h38.3a.861.861,0,0,0,.861-.861V21.415l5.3-5.6a5.789,5.789,0,0,0-4.2-9.77ZM20.45,1.74h.114L20.5,1.8C20.48,1.781,20.466,1.759,20.45,1.74ZM8.616,6.046V4.324A2.587,2.587,0,0,1,11.2,1.74h1.947a4.7,4.7,0,0,0-.9,4.307Zm5.168-1.292A3.015,3.015,0,1,1,16.8,7.769,3.015,3.015,0,0,1,13.784,4.754Zm6.555,13.351h-4.5l-5.814-5.168H20.168l.507,1.006v.716H20.7l-.014,3.1a.345.345,0,0,1-.342.347h0ZM26.448,6.046A2.9,2.9,0,0,0,24.4,10.99l.3.3a4.925,4.925,0,0,1-2.656,1.54l-.571-1.138L20.377,9.5a5.218,5.218,0,0,1-.415-1.232A4.714,4.714,0,0,0,21.332,3.38,5.308,5.308,0,0,1,25.18,1.74h1.464c.02,0,.04,0,.06.005v4.3ZM31.142,1.74h9.344A2.587,2.587,0,0,1,43.07,4.324V6.046H33.6l-.374-1.268A6.715,6.715,0,0,0,31.142,1.74Zm4.71,16.366H30.494a.349.349,0,0,1-.345-.345V16.383H31.9A2.587,2.587,0,0,0,34.482,13.8v-.861h7.183ZM4.458,35.734a3.054,3.054,0,0,1,2.51-1.263H8.541a3.055,3.055,0,0,1,2.511,1.263.789.789,0,0,1,0,.919,3.054,3.054,0,0,1-2.511,1.263H6.969a3.055,3.055,0,0,1-2.511-1.263A.789.789,0,0,1,4.458,35.734ZM3.6,40.906a3.132,3.132,0,0,1,2.561-1.268H9.351a3.13,3.13,0,0,1,2.561,1.268.762.762,0,0,1,0,.909,3.132,3.132,0,0,1-2.561,1.268H6.159A3.13,3.13,0,0,1,3.6,41.816a.762.762,0,0,1,0-.909Zm4.157,9.069H5.628a4.466,4.466,0,0,1-3.649-1.81,1.315,1.315,0,0,1,0-1.547,4.465,4.465,0,0,1,3.649-1.811H9.882a4.466,4.466,0,0,1,3.649,1.81,1.315,1.315,0,0,1,0,1.547,4.466,4.466,0,0,1-3.649,1.811Zm29.286-18.95a4.312,4.312,0,0,1-1.432,3.2l.524-3.667.726-.767a4.281,4.281,0,0,1,.182,1.234Zm6.029,18.95H37.624l-2.715-6.789a4.313,4.313,0,0,1-.265-2.209l.645-4.515a5.966,5.966,0,0,0,2.93-7.912q-.03-.065-.061-.129l4.912-5.186Z" transform="translate(0)"/><path class="a" d="M211.046,182.047a3.015,3.015,0,1,0-3.015-3.015A3.015,3.015,0,0,0,211.046,182.047Zm0-4.307a1.292,1.292,0,1,1-1.292,1.292A1.292,1.292,0,0,1,211.046,177.741Z" transform="translate(-185.633 -157.051)"/><path class="a" d="M211.046,254.046a3.015,3.015,0,1,0-3.015-3.015A3.015,3.015,0,0,0,211.046,254.046Zm0-4.307a1.292,1.292,0,1,1-1.292,1.292A1.292,1.292,0,0,1,211.046,249.74Z" transform="translate(-185.633 -221.298)"/><path class="a" d="M211.046,326.046a3.015,3.015,0,1,0-3.015-3.015A3.015,3.015,0,0,0,211.046,326.046Zm0-4.307a1.292,1.292,0,1,1-1.292,1.292A1.292,1.292,0,0,1,211.046,321.74Z" transform="translate(-185.633 -285.546)"/><path class="a" d="M211.046,398.046a3.015,3.015,0,1,0-3.015-3.015A3.015,3.015,0,0,0,211.046,398.046Zm0-4.307a1.292,1.292,0,1,1-1.292,1.292A1.292,1.292,0,0,1,211.046,393.74Z" transform="translate(-185.633 -349.794)"/></g></svg>